# xmcd
#
# Track frame offsets:
#       150
#       29605
#       57655
#       76020
#       92892
#       108912
#       131620
#       149637
#       167400
#       187522
#       212245
#       220232
#
# Disc length: 3172 seconds
#
# Revision: 0
# Processed by: cddbd v1.4PL0 Copyright (c) Steve Scherf et al.
# Submitted via: CD-DA_X-Tractor v0.21
#
DISCID=a80c620c
DTITLE=SweetMSJ,AKAMStJuste - NaCI[sub]2{equation}
DYEAR=1900
DGENRE=
TTITLE0=WakeUpCall,The
TTITLE1=WeGotALessonToLearn
TTITLE2=WomenOfTheNineties['90s]
TTITLE3=I'mTooGoodForDrugs
TTITLE4=NaCI2{Equation}
TTITLE5=Money
TTITLE6=Mackin
TTITLE7=BoomBamDam
TTITLE8=BodyLove
TTITLE9=IWantToLoveYou
TTITLE10=ShotsOut
TTITLE11=GLeaningBass[bonus]
EXTD=
EXTT0=
EXTT1=
EXTT2=
EXTT3=
EXTT4=
EXTT5=
EXTT6=
EXTT7=
EXTT8=
EXTT9=
EXTT10=
EXTT11=
PLAYORDER=
